<svg width="21" height="18" viewBox="0 0 21 18" fill="none" xmlns="http://www.w3.org/2000/svg">
<path fill-rule="evenodd" clip-rule="evenodd" d="M1.44364 7.49201C7.08077 5.036 10.8397 3.41685 12.7206 2.63456C18.0907 0.40095 19.2065 0.0129487 19.9338 0.000136605C20.0938 -0.00268126 20.4514 0.0369623 20.6831 0.224955C20.8787 0.383693 20.9326 0.598125 20.9583 0.748626C20.9841 0.899126 21.0162 1.24197 20.9907 1.50986C20.6997 4.5675 19.4405 11.9876 18.7999 15.4122C18.5288 16.8613 17.9951 17.3471 17.4784 17.3947C16.3554 17.498 15.5027 16.6526 14.4151 15.9396C12.7132 14.824 11.7517 14.1295 10.0997 13.0409C8.19056 11.7828 9.42819 11.0913 10.5162 9.96121C10.801 9.66547 15.7486 5.16517 15.8444 4.75692C15.8564 4.70586 15.8675 4.51554 15.7544 4.41504C15.6414 4.31455 15.4745 4.34891 15.3541 4.37624C15.1834 4.41499 12.4646 6.21203 7.19761 9.76736C6.42588 10.2973 5.72687 10.5555 5.10058 10.542C4.41015 10.527 3.08204 10.1516 2.09473 9.83064C0.883743 9.437 -0.0787216 9.22888 0.00508745 8.56035C0.0487404 8.21214 0.528258 7.85603 1.44364 7.49201Z" fill="white"/>
</svg>
