<svg width="648" height="605" viewBox="0 0 648 605" fill="none" xmlns="http://www.w3.org/2000/svg">
<g filter="url(#filter0_d_20_28)">
<rect x="60" y="20" width="528" height="485" rx="31" fill="#FEFFF9"/>
</g>
<rect x="102" y="412" width="449" height="45" fill="#F0F9BA"/>
<rect x="102.5" y="62.5" width="448" height="44" stroke="black" stroke-opacity="0.1"/>
<path d="M121.44 167V158.104H118.416V156.536H126.32V158.104H123.296V167H121.44ZM127.199 167V159.144H128.719L128.847 160.536H128.911C129.189 160.024 129.525 159.635 129.919 159.368C130.314 159.091 130.719 158.952 131.135 158.952C131.509 158.952 131.807 159.005 132.031 159.112L131.711 160.712C131.573 160.669 131.445 160.637 131.327 160.616C131.21 160.595 131.066 160.584 130.895 160.584C130.586 160.584 130.261 160.707 129.919 160.952C129.578 161.187 129.285 161.603 129.039 162.2V167H127.199ZM136.372 167.192C135.646 167.192 134.99 167.032 134.404 166.712C133.817 166.381 133.353 165.912 133.012 165.304C132.67 164.685 132.5 163.944 132.5 163.08C132.5 162.227 132.67 161.491 133.012 160.872C133.364 160.253 133.817 159.779 134.372 159.448C134.926 159.117 135.508 158.952 136.116 158.952C136.83 158.952 137.428 159.112 137.908 159.432C138.388 159.741 138.75 160.179 138.996 160.744C139.241 161.299 139.364 161.944 139.364 162.68C139.364 163.064 139.337 163.363 139.284 163.576H134.292C134.377 164.269 134.628 164.808 135.044 165.192C135.46 165.576 135.982 165.768 136.612 165.768C136.953 165.768 137.268 165.72 137.556 165.624C137.854 165.517 138.148 165.373 138.436 165.192L139.06 166.344C138.686 166.589 138.27 166.792 137.812 166.952C137.353 167.112 136.873 167.192 136.372 167.192ZM134.276 162.328H137.764C137.764 161.72 137.63 161.245 137.364 160.904C137.097 160.552 136.697 160.376 136.164 160.376C135.705 160.376 135.294 160.547 134.932 160.888C134.58 161.219 134.361 161.699 134.276 162.328ZM142.838 167.192C142.155 167.192 141.595 166.979 141.158 166.552C140.731 166.125 140.518 165.571 140.518 164.888C140.518 164.045 140.886 163.395 141.622 162.936C142.358 162.467 143.531 162.147 145.142 161.976C145.131 161.56 145.019 161.203 144.806 160.904C144.603 160.595 144.235 160.44 143.702 160.44C143.318 160.44 142.939 160.515 142.566 160.664C142.203 160.813 141.846 160.995 141.494 161.208L140.822 159.976C141.259 159.699 141.75 159.459 142.294 159.256C142.848 159.053 143.435 158.952 144.054 158.952C145.035 158.952 145.766 159.245 146.246 159.832C146.736 160.408 146.982 161.245 146.982 162.344V167H145.462L145.334 166.136H145.27C144.918 166.435 144.539 166.685 144.134 166.888C143.739 167.091 143.307 167.192 142.838 167.192ZM143.43 165.752C143.75 165.752 144.038 165.677 144.294 165.528C144.56 165.368 144.843 165.155 145.142 164.888V163.128C144.075 163.267 143.334 163.475 142.918 163.752C142.502 164.019 142.294 164.349 142.294 164.744C142.294 165.096 142.4 165.352 142.614 165.512C142.827 165.672 143.099 165.752 143.43 165.752ZM151.376 167.192C150.842 167.192 150.309 167.091 149.776 166.888C149.242 166.675 148.784 166.413 148.4 166.104L149.264 164.92C149.616 165.187 149.968 165.4 150.32 165.56C150.672 165.72 151.045 165.8 151.44 165.8C151.866 165.8 152.181 165.709 152.384 165.528C152.586 165.347 152.688 165.123 152.688 164.856C152.688 164.632 152.602 164.451 152.432 164.312C152.272 164.163 152.064 164.035 151.808 163.928C151.552 163.811 151.285 163.699 151.008 163.592C150.666 163.464 150.325 163.309 149.984 163.128C149.653 162.936 149.381 162.696 149.168 162.408C148.954 162.109 148.848 161.741 148.848 161.304C148.848 160.611 149.104 160.045 149.616 159.608C150.128 159.171 150.821 158.952 151.696 158.952C152.25 158.952 152.746 159.048 153.184 159.24C153.621 159.432 154 159.651 154.32 159.896L153.472 161.016C153.194 160.813 152.912 160.653 152.624 160.536C152.346 160.408 152.053 160.344 151.744 160.344C151.349 160.344 151.056 160.429 150.864 160.6C150.672 160.76 150.576 160.963 150.576 161.208C150.576 161.517 150.736 161.752 151.056 161.912C151.376 162.072 151.749 162.227 152.176 162.376C152.538 162.504 152.89 162.664 153.232 162.856C153.573 163.037 153.856 163.277 154.08 163.576C154.314 163.875 154.432 164.269 154.432 164.76C154.432 165.432 154.17 166.008 153.648 166.488C153.125 166.957 152.368 167.192 151.376 167.192ZM158.41 167.192C157.568 167.192 156.954 166.92 156.57 166.376C156.186 165.832 155.994 165.064 155.994 164.072V159.144H157.834V163.832C157.834 164.483 157.93 164.941 158.122 165.208C158.314 165.475 158.624 165.608 159.05 165.608C159.392 165.608 159.69 165.523 159.946 165.352C160.213 165.181 160.496 164.904 160.794 164.52V159.144H162.634V167H161.13L160.986 165.848H160.938C160.597 166.253 160.224 166.579 159.818 166.824C159.413 167.069 158.944 167.192 158.41 167.192ZM164.965 167V159.144H166.485L166.613 160.536H166.677C166.954 160.024 167.29 159.635 167.685 159.368C168.08 159.091 168.485 158.952 168.901 158.952C169.274 158.952 169.573 159.005 169.797 159.112L169.477 160.712C169.338 160.669 169.21 160.637 169.093 160.616C168.976 160.595 168.832 160.584 168.661 160.584C168.352 160.584 168.026 160.707 167.685 160.952C167.344 161.187 167.05 161.603 166.805 162.2V167H164.965ZM171.712 170.232C171.498 170.232 171.312 170.216 171.152 170.184C170.992 170.152 170.837 170.115 170.688 170.072L171.024 168.632C171.098 168.653 171.184 168.675 171.28 168.696C171.386 168.728 171.488 168.744 171.584 168.744C172 168.744 172.33 168.616 172.576 168.36C172.832 168.115 173.024 167.795 173.152 167.4L173.296 166.904L170.208 159.144H172.08L173.44 163C173.557 163.341 173.669 163.704 173.776 164.088C173.893 164.461 174.01 164.835 174.128 165.208H174.192C174.288 164.845 174.384 164.477 174.48 164.104C174.586 163.72 174.688 163.352 174.784 163L175.968 159.144H177.744L174.896 167.352C174.565 168.237 174.165 168.936 173.696 169.448C173.226 169.971 172.565 170.232 171.712 170.232ZM182.469 167V156.536H188.789V158.104H184.325V161.064H188.133V162.632H184.325V167H182.469ZM192.52 167.192C191.677 167.192 191.064 166.92 190.68 166.376C190.296 165.832 190.104 165.064 190.104 164.072V159.144H191.944V163.832C191.944 164.483 192.04 164.941 192.232 165.208C192.424 165.475 192.733 165.608 193.16 165.608C193.501 165.608 193.8 165.523 194.056 165.352C194.322 165.181 194.605 164.904 194.904 164.52V159.144H196.744V167H195.24L195.096 165.848H195.048C194.706 166.253 194.333 166.579 193.928 166.824C193.522 167.069 193.053 167.192 192.52 167.192ZM199.074 167V159.144H200.594L200.722 160.2H200.786C201.138 159.859 201.522 159.565 201.938 159.32C202.354 159.075 202.829 158.952 203.362 158.952C204.205 158.952 204.818 159.224 205.202 159.768C205.586 160.312 205.778 161.08 205.778 162.072V167H203.938V162.312C203.938 161.661 203.842 161.203 203.65 160.936C203.458 160.669 203.144 160.536 202.706 160.536C202.365 160.536 202.061 160.621 201.794 160.792C201.538 160.952 201.245 161.192 200.914 161.512V167H199.074ZM210.779 167.192C209.798 167.192 209.014 166.829 208.427 166.104C207.841 165.379 207.547 164.371 207.547 163.08C207.547 162.227 207.702 161.491 208.011 160.872C208.331 160.253 208.747 159.779 209.259 159.448C209.771 159.117 210.31 158.952 210.875 158.952C211.323 158.952 211.702 159.032 212.011 159.192C212.331 159.341 212.641 159.549 212.939 159.816L212.875 158.552V155.704H214.715V167H213.195L213.067 166.152H213.003C212.715 166.44 212.379 166.685 211.995 166.888C211.611 167.091 211.206 167.192 210.779 167.192ZM211.227 165.672C211.814 165.672 212.363 165.379 212.875 164.792V161.128C212.609 160.883 212.342 160.712 212.075 160.616C211.809 160.52 211.542 160.472 211.275 160.472C210.774 160.472 210.342 160.701 209.979 161.16C209.627 161.608 209.451 162.243 209.451 163.064C209.451 163.907 209.606 164.552 209.915 165C210.225 165.448 210.662 165.672 211.227 165.672ZM219.251 167.192C218.717 167.192 218.184 167.091 217.651 166.888C217.117 166.675 216.659 166.413 216.275 166.104L217.139 164.92C217.491 165.187 217.843 165.4 218.195 165.56C218.547 165.72 218.92 165.8 219.315 165.8C219.741 165.8 220.056 165.709 220.259 165.528C220.461 165.347 220.563 165.123 220.563 164.856C220.563 164.632 220.477 164.451 220.307 164.312C220.147 164.163 219.939 164.035 219.683 163.928C219.427 163.811 219.16 163.699 218.883 163.592C218.541 163.464 218.2 163.309 217.859 163.128C217.528 162.936 217.256 162.696 217.043 162.408C216.829 162.109 216.723 161.741 216.723 161.304C216.723 160.611 216.979 160.045 217.491 159.608C218.003 159.171 218.696 158.952 219.571 158.952C220.125 158.952 220.621 159.048 221.059 159.24C221.496 159.432 221.875 159.651 222.195 159.896L221.347 161.016C221.069 160.813 220.787 160.653 220.499 160.536C220.221 160.408 219.928 160.344 219.619 160.344C219.224 160.344 218.931 160.429 218.739 160.6C218.547 160.76 218.451 160.963 218.451 161.208C218.451 161.517 218.611 161.752 218.931 161.912C219.251 162.072 219.624 162.227 220.051 162.376C220.413 162.504 220.765 162.664 221.107 162.856C221.448 163.037 221.731 163.277 221.955 163.576C222.189 163.875 222.307 164.269 222.307 164.76C222.307 165.432 222.045 166.008 221.523 166.488C221 166.957 220.243 167.192 219.251 167.192ZM119.328 230V219.536H121.184V228.432H125.536V230H119.328ZM127.199 230V222.144H129.039V230H127.199ZM128.127 220.768C127.797 220.768 127.53 220.672 127.327 220.48C127.125 220.288 127.023 220.032 127.023 219.712C127.023 219.403 127.125 219.152 127.327 218.96C127.53 218.768 127.797 218.672 128.127 218.672C128.458 218.672 128.725 218.768 128.927 218.96C129.13 219.152 129.231 219.403 129.231 219.712C129.231 220.032 129.13 220.288 128.927 220.48C128.725 220.672 128.458 220.768 128.127 220.768ZM136.235 233.104V230.528L136.299 229.216C136.011 229.493 135.68 229.728 135.307 229.92C134.933 230.101 134.544 230.192 134.139 230.192C133.157 230.192 132.373 229.829 131.787 229.104C131.2 228.379 130.907 227.371 130.907 226.08C130.907 225.227 131.061 224.491 131.371 223.872C131.691 223.253 132.107 222.779 132.619 222.448C133.131 222.117 133.669 221.952 134.235 221.952C134.672 221.952 135.061 222.032 135.403 222.192C135.744 222.341 136.08 222.576 136.411 222.896H136.459L136.619 222.144H138.075V233.104H136.235ZM134.587 228.672C135.173 228.672 135.723 228.379 136.235 227.792V224.128C135.968 223.883 135.701 223.712 135.435 223.616C135.168 223.52 134.901 223.472 134.635 223.472C134.133 223.472 133.701 223.701 133.339 224.16C132.987 224.608 132.811 225.243 132.811 226.064C132.811 226.907 132.965 227.552 133.275 228C133.584 228.448 134.021 228.672 134.587 228.672ZM142.754 230.192C141.911 230.192 141.298 229.92 140.914 229.376C140.53 228.832 140.338 228.064 140.338 227.072V222.144H142.178V226.832C142.178 227.483 142.274 227.941 142.466 228.208C142.658 228.475 142.967 228.608 143.394 228.608C143.735 228.608 144.034 228.523 144.29 228.352C144.557 228.181 144.839 227.904 145.138 227.52V222.144H146.978V230H145.474L145.33 228.848H145.282C144.941 229.253 144.567 229.579 144.162 229.824C143.757 230.069 143.287 230.192 142.754 230.192ZM149.309 230V222.144H151.149V230H149.309ZM150.237 220.768C149.906 220.768 149.639 220.672 149.437 220.48C149.234 220.288 149.133 220.032 149.133 219.712C149.133 219.403 149.234 219.152 149.437 218.96C149.639 218.768 149.906 218.672 150.237 218.672C150.567 218.672 150.834 218.768 151.037 218.96C151.239 219.152 151.341 219.403 151.341 219.712C151.341 220.032 151.239 220.288 151.037 220.48C150.834 220.672 150.567 220.768 150.237 220.768ZM156.248 230.192C155.267 230.192 154.483 229.829 153.896 229.104C153.309 228.379 153.016 227.371 153.016 226.08C153.016 225.227 153.171 224.491 153.48 223.872C153.8 223.253 154.216 222.779 154.728 222.448C155.24 222.117 155.779 221.952 156.344 221.952C156.792 221.952 157.171 222.032 157.48 222.192C157.8 222.341 158.109 222.549 158.408 222.816L158.344 221.552V218.704H160.184V230H158.664L158.536 229.152H158.472C158.184 229.44 157.848 229.685 157.464 229.888C157.08 230.091 156.675 230.192 156.248 230.192ZM156.696 228.672C157.283 228.672 157.832 228.379 158.344 227.792V224.128C158.077 223.883 157.811 223.712 157.544 223.616C157.277 223.52 157.011 223.472 156.744 223.472C156.243 223.472 155.811 223.701 155.448 224.16C155.096 224.608 154.92 225.243 154.92 226.064C154.92 226.907 155.075 227.552 155.384 228C155.693 228.448 156.131 228.672 156.696 228.672ZM162.527 230V222.144H164.367V230H162.527ZM163.455 220.768C163.125 220.768 162.858 220.672 162.655 220.48C162.453 220.288 162.351 220.032 162.351 219.712C162.351 219.403 162.453 219.152 162.655 218.96C162.858 218.768 163.125 218.672 163.455 218.672C163.786 218.672 164.053 218.768 164.255 218.96C164.458 219.152 164.559 219.403 164.559 219.712C164.559 220.032 164.458 220.288 164.255 220.48C164.053 220.672 163.786 220.768 163.455 220.768ZM169.483 230.192C168.576 230.192 167.931 229.931 167.547 229.408C167.174 228.875 166.987 228.187 166.987 227.344V223.6H165.867V222.224L167.083 222.144L167.307 220H168.843V222.144H170.843V223.6H168.843V227.344C168.843 228.261 169.211 228.72 169.947 228.72C170.086 228.72 170.23 228.704 170.379 228.672C170.528 228.629 170.656 228.587 170.763 228.544L171.083 229.904C170.87 229.979 170.624 230.043 170.347 230.096C170.08 230.16 169.792 230.192 169.483 230.192ZM173.024 233.232C172.811 233.232 172.624 233.216 172.464 233.184C172.304 233.152 172.149 233.115 172 233.072L172.336 231.632C172.411 231.653 172.496 231.675 172.592 231.696C172.699 231.728 172.8 231.744 172.896 231.744C173.312 231.744 173.643 231.616 173.888 231.36C174.144 231.115 174.336 230.795 174.464 230.4L174.608 229.904L171.52 222.144H173.392L174.752 226C174.869 226.341 174.981 226.704 175.088 227.088C175.205 227.461 175.323 227.835 175.44 228.208H175.504C175.6 227.845 175.696 227.477 175.792 227.104C175.899 226.72 176 226.352 176.096 226L177.28 222.144H179.056L176.208 230.352C175.877 231.237 175.477 231.936 175.008 232.448C174.539 232.971 173.877 233.232 173.024 233.232ZM119.328 293V282.536H121.184V293H119.328ZM123.684 293V285.144H125.204L125.332 286.2H125.396C125.748 285.859 126.132 285.565 126.548 285.32C126.964 285.075 127.438 284.952 127.972 284.952C128.814 284.952 129.428 285.224 129.812 285.768C130.196 286.312 130.388 287.08 130.388 288.072V293H128.548V288.312C128.548 287.661 128.452 287.203 128.26 286.936C128.068 286.669 127.753 286.536 127.316 286.536C126.974 286.536 126.67 286.621 126.404 286.792C126.148 286.952 125.854 287.192 125.524 287.512V293H123.684ZM134.829 293.192C134.295 293.192 133.762 293.091 133.229 292.888C132.695 292.675 132.237 292.413 131.853 292.104L132.717 290.92C133.069 291.187 133.421 291.4 133.773 291.56C134.125 291.72 134.498 291.8 134.893 291.8C135.319 291.8 135.634 291.709 135.837 291.528C136.039 291.347 136.141 291.123 136.141 290.856C136.141 290.632 136.055 290.451 135.885 290.312C135.725 290.163 135.517 290.035 135.261 289.928C135.005 289.811 134.738 289.699 134.461 289.592C134.119 289.464 133.778 289.309 133.437 289.128C133.106 288.936 132.834 288.696 132.621 288.408C132.407 288.109 132.301 287.741 132.301 287.304C132.301 286.611 132.557 286.045 133.069 285.608C133.581 285.171 134.274 284.952 135.149 284.952C135.703 284.952 136.199 285.048 136.637 285.24C137.074 285.432 137.453 285.651 137.773 285.896L136.925 287.016C136.647 286.813 136.365 286.653 136.077 286.536C135.799 286.408 135.506 286.344 135.197 286.344C134.802 286.344 134.509 286.429 134.317 286.6C134.125 286.76 134.029 286.963 134.029 287.208C134.029 287.517 134.189 287.752 134.509 287.912C134.829 288.072 135.202 288.227 135.629 288.376C135.991 288.504 136.343 288.664 136.685 288.856C137.026 289.037 137.309 289.277 137.533 289.576C137.767 289.875 137.885 290.269 137.885 290.76C137.885 291.432 137.623 292.008 137.101 292.488C136.578 292.957 135.821 293.192 134.829 293.192ZM141.863 293.192C141.021 293.192 140.407 292.92 140.023 292.376C139.639 291.832 139.447 291.064 139.447 290.072V285.144H141.287V289.832C141.287 290.483 141.383 290.941 141.575 291.208C141.767 291.475 142.077 291.608 142.503 291.608C142.845 291.608 143.143 291.523 143.399 291.352C143.666 291.181 143.949 290.904 144.247 290.52V285.144H146.087V293H144.583L144.439 291.848H144.391C144.05 292.253 143.677 292.579 143.271 292.824C142.866 293.069 142.397 293.192 141.863 293.192ZM148.418 293V285.144H149.938L150.066 286.536H150.13C150.407 286.024 150.743 285.635 151.138 285.368C151.533 285.091 151.938 284.952 152.354 284.952C152.727 284.952 153.026 285.005 153.25 285.112L152.93 286.712C152.791 286.669 152.663 286.637 152.546 286.616C152.429 286.595 152.285 286.584 152.114 286.584C151.805 286.584 151.479 286.707 151.138 286.952C150.797 287.187 150.503 287.603 150.258 288.2V293H148.418ZM155.869 293.192C155.186 293.192 154.626 292.979 154.189 292.552C153.762 292.125 153.549 291.571 153.549 290.888C153.549 290.045 153.917 289.395 154.653 288.936C155.389 288.467 156.562 288.147 158.173 287.976C158.162 287.56 158.05 287.203 157.837 286.904C157.634 286.595 157.266 286.44 156.733 286.44C156.349 286.44 155.97 286.515 155.597 286.664C155.234 286.813 154.877 286.995 154.525 287.208L153.853 285.976C154.29 285.699 154.781 285.459 155.325 285.256C155.88 285.053 156.466 284.952 157.085 284.952C158.066 284.952 158.797 285.245 159.277 285.832C159.768 286.408 160.013 287.245 160.013 288.344V293H158.493L158.365 292.136H158.301C157.949 292.435 157.57 292.685 157.165 292.888C156.77 293.091 156.338 293.192 155.869 293.192ZM156.461 291.752C156.781 291.752 157.069 291.677 157.325 291.528C157.592 291.368 157.874 291.155 158.173 290.888V289.128C157.106 289.267 156.365 289.475 155.949 289.752C155.533 290.019 155.325 290.349 155.325 290.744C155.325 291.096 155.432 291.352 155.645 291.512C155.858 291.672 156.13 291.752 156.461 291.752ZM162.215 293V285.144H163.735L163.863 286.2H163.927C164.279 285.859 164.663 285.565 165.079 285.32C165.495 285.075 165.97 284.952 166.503 284.952C167.346 284.952 167.959 285.224 168.343 285.768C168.727 286.312 168.919 287.08 168.919 288.072V293H167.079V288.312C167.079 287.661 166.983 287.203 166.791 286.936C166.599 286.669 166.284 286.536 165.847 286.536C165.506 286.536 165.202 286.621 164.935 286.792C164.679 286.952 164.386 287.192 164.055 287.512V293H162.215ZM174.448 293.192C173.733 293.192 173.088 293.032 172.512 292.712C171.947 292.381 171.493 291.912 171.152 291.304C170.821 290.685 170.656 289.944 170.656 289.08C170.656 288.205 170.837 287.464 171.2 286.856C171.563 286.237 172.043 285.768 172.64 285.448C173.248 285.117 173.899 284.952 174.592 284.952C175.093 284.952 175.531 285.037 175.904 285.208C176.277 285.379 176.608 285.587 176.896 285.832L176 287.032C175.797 286.851 175.589 286.712 175.376 286.616C175.163 286.509 174.933 286.456 174.688 286.456C174.059 286.456 173.541 286.696 173.136 287.176C172.741 287.656 172.544 288.291 172.544 289.08C172.544 289.859 172.736 290.488 173.12 290.968C173.515 291.448 174.021 291.688 174.64 291.688C174.949 291.688 175.237 291.624 175.504 291.496C175.781 291.357 176.032 291.197 176.256 291.016L177.008 292.232C176.645 292.552 176.24 292.792 175.792 292.952C175.344 293.112 174.896 293.192 174.448 293.192ZM181.528 293.192C180.803 293.192 180.147 293.032 179.56 292.712C178.973 292.381 178.509 291.912 178.168 291.304C177.827 290.685 177.656 289.944 177.656 289.08C177.656 288.227 177.827 287.491 178.168 286.872C178.52 286.253 178.973 285.779 179.528 285.448C180.083 285.117 180.664 284.952 181.272 284.952C181.987 284.952 182.584 285.112 183.064 285.432C183.544 285.741 183.907 286.179 184.152 286.744C184.397 287.299 184.52 287.944 184.52 288.68C184.52 289.064 184.493 289.363 184.44 289.576H179.448C179.533 290.269 179.784 290.808 180.2 291.192C180.616 291.576 181.139 291.768 181.768 291.768C182.109 291.768 182.424 291.72 182.712 291.624C183.011 291.517 183.304 291.373 183.592 291.192L184.216 292.344C183.843 292.589 183.427 292.792 182.968 292.952C182.509 293.112 182.029 293.192 181.528 293.192ZM179.432 288.328H182.92C182.92 287.72 182.787 287.245 182.52 286.904C182.253 286.552 181.853 286.376 181.32 286.376C180.861 286.376 180.451 286.547 180.088 286.888C179.736 287.219 179.517 287.699 179.432 288.328ZM121.472 350.432L121.104 351.712H123.776L123.408 350.432C123.237 349.877 123.072 349.307 122.912 348.72C122.763 348.133 122.613 347.552 122.464 346.976H122.4C122.261 347.563 122.112 348.149 121.952 348.736C121.803 349.312 121.643 349.877 121.472 350.432ZM117.968 356L121.376 345.536H123.552L126.96 356H125.008L124.192 353.168H120.672L119.856 356H117.968ZM130.363 356.192C129.521 356.192 128.907 355.92 128.523 355.376C128.139 354.832 127.947 354.064 127.947 353.072V348.144H129.787V352.832C129.787 353.483 129.883 353.941 130.075 354.208C130.267 354.475 130.577 354.608 131.003 354.608C131.345 354.608 131.643 354.523 131.899 354.352C132.166 354.181 132.449 353.904 132.747 353.52V348.144H134.587V356H133.083L132.939 354.848H132.891C132.55 355.253 132.177 355.579 131.771 355.824C131.366 356.069 130.897 356.192 130.363 356.192ZM139.686 356.192C138.779 356.192 138.134 355.931 137.75 355.408C137.377 354.875 137.19 354.187 137.19 353.344V349.6H136.07V348.224L137.286 348.144L137.51 346H139.046V348.144H141.046V349.6H139.046V353.344C139.046 354.261 139.414 354.72 140.15 354.72C140.289 354.72 140.433 354.704 140.582 354.672C140.731 354.629 140.859 354.587 140.966 354.544L141.286 355.904C141.073 355.979 140.827 356.043 140.55 356.096C140.283 356.16 139.995 356.192 139.686 356.192ZM145.665 356.192C145.015 356.192 144.407 356.032 143.841 355.712C143.276 355.381 142.817 354.912 142.465 354.304C142.113 353.685 141.937 352.944 141.937 352.08C141.937 351.205 142.113 350.464 142.465 349.856C142.817 349.237 143.276 348.768 143.841 348.448C144.407 348.117 145.015 347.952 145.665 347.952C146.327 347.952 146.94 348.117 147.505 348.448C148.071 348.768 148.529 349.237 148.881 349.856C149.233 350.464 149.409 351.205 149.409 352.08C149.409 352.944 149.233 353.685 148.881 354.304C148.529 354.912 148.071 355.381 147.505 355.712C146.94 356.032 146.327 356.192 145.665 356.192ZM145.665 354.688C146.241 354.688 146.695 354.448 147.025 353.968C147.356 353.488 147.521 352.859 147.521 352.08C147.521 351.291 147.356 350.656 147.025 350.176C146.695 349.696 146.241 349.456 145.665 349.456C145.089 349.456 144.636 349.696 144.305 350.176C143.985 350.656 143.825 351.291 143.825 352.08C143.825 352.859 143.985 353.488 144.305 353.968C144.636 354.448 145.089 354.688 145.665 354.688ZM153.938 352.64V351.296H157.746V352.64H153.938ZM162.953 356V345.536H166.297C167.022 345.536 167.662 345.616 168.217 345.776C168.782 345.936 169.225 346.208 169.545 346.592C169.876 346.965 170.041 347.472 170.041 348.112C170.041 348.603 169.913 349.067 169.657 349.504C169.401 349.931 169.044 350.224 168.585 350.384V350.448C169.161 350.576 169.636 350.848 170.009 351.264C170.393 351.669 170.585 352.224 170.585 352.928C170.585 353.621 170.409 354.197 170.057 354.656C169.716 355.115 169.241 355.456 168.633 355.68C168.025 355.893 167.337 356 166.569 356H162.953ZM164.809 349.856H166.137C166.862 349.856 167.39 349.723 167.721 349.456C168.052 349.189 168.217 348.832 168.217 348.384C168.217 347.872 168.046 347.509 167.705 347.296C167.364 347.083 166.852 346.976 166.169 346.976H164.809V349.856ZM164.809 354.56H166.377C167.145 354.56 167.737 354.421 168.153 354.144C168.569 353.856 168.777 353.419 168.777 352.832C168.777 352.277 168.574 351.877 168.169 351.632C167.764 351.376 167.166 351.248 166.377 351.248H164.809V354.56ZM174.676 356.192C173.833 356.192 173.22 355.92 172.836 355.376C172.452 354.832 172.26 354.064 172.26 353.072V348.144H174.1V352.832C174.1 353.483 174.196 353.941 174.388 354.208C174.58 354.475 174.889 354.608 175.316 354.608C175.657 354.608 175.956 354.523 176.212 354.352C176.479 354.181 176.761 353.904 177.06 353.52V348.144H178.9V356H177.396L177.252 354.848H177.204C176.863 355.253 176.489 355.579 176.084 355.824C175.679 356.069 175.209 356.192 174.676 356.192ZM181.231 356V348.144H182.751L182.879 349.536H182.943C183.22 349.024 183.556 348.635 183.951 348.368C184.345 348.091 184.751 347.952 185.167 347.952C185.54 347.952 185.839 348.005 186.063 348.112L185.743 349.712C185.604 349.669 185.476 349.637 185.359 349.616C185.241 349.595 185.097 349.584 184.927 349.584C184.617 349.584 184.292 349.707 183.951 349.952C183.609 350.187 183.316 350.603 183.071 351.2V356H181.231ZM187.199 356V348.144H188.719L188.847 349.2H188.911C189.263 348.859 189.647 348.565 190.063 348.32C190.479 348.075 190.954 347.952 191.487 347.952C192.33 347.952 192.943 348.224 193.327 348.768C193.711 349.312 193.903 350.08 193.903 351.072V356H192.063V351.312C192.063 350.661 191.967 350.203 191.775 349.936C191.583 349.669 191.269 349.536 190.831 349.536C190.49 349.536 190.186 349.621 189.919 349.792C189.663 349.952 189.37 350.192 189.039 350.512V356H187.199Z" fill="#0D0E25"/>
<path d="M336.856 167.192C336.035 167.192 335.341 167.053 334.776 166.776C334.221 166.488 333.757 166.157 333.384 165.784L334.232 164.6C334.541 164.888 334.888 165.144 335.272 165.368C335.656 165.581 336.104 165.688 336.616 165.688C337.181 165.688 337.651 165.517 338.024 165.176C338.397 164.835 338.584 164.355 338.584 163.736C338.584 163.128 338.413 162.659 338.072 162.328C337.731 161.997 337.277 161.832 336.712 161.832C336.381 161.832 336.104 161.88 335.88 161.976C335.656 162.061 335.389 162.205 335.08 162.408L334.2 161.848L334.504 156.824H339.944V158.376H336.104L335.896 160.84C336.109 160.733 336.317 160.653 336.52 160.6C336.733 160.536 336.973 160.504 337.24 160.504C337.827 160.504 338.36 160.616 338.84 160.84C339.32 161.064 339.704 161.411 339.992 161.88C340.291 162.349 340.44 162.952 340.44 163.688C340.44 164.424 340.269 165.053 339.928 165.576C339.597 166.099 339.16 166.499 338.616 166.776C338.072 167.053 337.485 167.192 336.856 167.192ZM344.179 162.968C343.443 162.968 342.84 162.68 342.371 162.104C341.912 161.517 341.683 160.696 341.683 159.64C341.683 158.595 341.912 157.784 342.371 157.208C342.84 156.632 343.443 156.344 344.179 156.344C344.915 156.344 345.512 156.632 345.971 157.208C346.44 157.784 346.675 158.595 346.675 159.64C346.675 160.696 346.44 161.517 345.971 162.104C345.512 162.68 344.915 162.968 344.179 162.968ZM344.179 161.896C344.52 161.896 344.798 161.715 345.011 161.352C345.235 160.989 345.347 160.419 345.347 159.64C345.347 158.851 345.235 158.285 345.011 157.944C344.798 157.592 344.52 157.416 344.179 157.416C343.848 157.416 343.571 157.592 343.347 157.944C343.123 158.285 343.011 158.851 343.011 159.64C343.011 160.419 343.123 160.989 343.347 161.352C343.571 161.715 343.848 161.896 344.179 161.896ZM344.515 167.192L350.227 156.344H351.347L345.651 167.192H344.515ZM351.683 167.192C350.947 167.192 350.344 166.904 349.875 166.328C349.416 165.741 349.187 164.92 349.187 163.864C349.187 162.819 349.416 162.008 349.875 161.432C350.344 160.856 350.947 160.568 351.683 160.568C352.419 160.568 353.016 160.856 353.475 161.432C353.944 162.008 354.179 162.819 354.179 163.864C354.179 164.92 353.944 165.741 353.475 166.328C353.016 166.904 352.419 167.192 351.683 167.192ZM351.683 166.12C352.024 166.12 352.302 165.939 352.515 165.576C352.739 165.213 352.851 164.643 352.851 163.864C352.851 163.075 352.739 162.509 352.515 162.168C352.302 161.816 352.024 161.64 351.683 161.64C351.352 161.64 351.075 161.816 350.851 162.168C350.627 162.509 350.515 163.075 350.515 163.864C350.515 164.643 350.627 165.213 350.851 165.576C351.075 165.939 351.352 166.12 351.683 166.12ZM335.112 225.952H337.784V223.648C337.784 223.349 337.795 222.997 337.816 222.592C337.837 222.187 337.853 221.835 337.864 221.536H337.8C337.672 221.803 337.539 222.064 337.4 222.32C337.261 222.576 337.117 222.843 336.968 223.12L335.112 225.952ZM337.784 230V227.376H333.288V226.128L337.32 219.824H339.512V225.952H340.792V227.376H339.512V230H337.784ZM344.179 225.968C343.443 225.968 342.84 225.68 342.371 225.104C341.912 224.517 341.683 223.696 341.683 222.64C341.683 221.595 341.912 220.784 342.371 220.208C342.84 219.632 343.443 219.344 344.179 219.344C344.915 219.344 345.512 219.632 345.971 220.208C346.44 220.784 346.675 221.595 346.675 222.64C346.675 223.696 346.44 224.517 345.971 225.104C345.512 225.68 344.915 225.968 344.179 225.968ZM344.179 224.896C344.52 224.896 344.798 224.715 345.011 224.352C345.235 223.989 345.347 223.419 345.347 222.64C345.347 221.851 345.235 221.285 345.011 220.944C344.798 220.592 344.52 220.416 344.179 220.416C343.848 220.416 343.571 220.592 343.347 220.944C343.123 221.285 343.011 221.851 343.011 222.64C343.011 223.419 343.123 223.989 343.347 224.352C343.571 224.715 343.848 224.896 344.179 224.896ZM344.515 230.192L350.227 219.344H351.347L345.651 230.192H344.515ZM351.683 230.192C350.947 230.192 350.344 229.904 349.875 229.328C349.416 228.741 349.187 227.92 349.187 226.864C349.187 225.819 349.416 225.008 349.875 224.432C350.344 223.856 350.947 223.568 351.683 223.568C352.419 223.568 353.016 223.856 353.475 224.432C353.944 225.008 354.179 225.819 354.179 226.864C354.179 227.92 353.944 228.741 353.475 229.328C353.016 229.904 352.419 230.192 351.683 230.192ZM351.683 229.12C352.024 229.12 352.302 228.939 352.515 228.576C352.739 228.213 352.851 227.643 352.851 226.864C352.851 226.075 352.739 225.509 352.515 225.168C352.302 224.816 352.024 224.64 351.683 224.64C351.352 224.64 351.075 224.816 350.851 225.168C350.627 225.509 350.515 226.075 350.515 226.864C350.515 227.643 350.627 228.213 350.851 228.576C351.075 228.939 351.352 229.12 351.683 229.12ZM336.84 293.192C336.019 293.192 335.325 293.053 334.76 292.776C334.205 292.488 333.747 292.147 333.384 291.752L334.264 290.568C334.573 290.877 334.925 291.144 335.32 291.368C335.715 291.581 336.168 291.688 336.68 291.688C337.235 291.688 337.683 291.555 338.024 291.288C338.376 291.011 338.552 290.632 338.552 290.152C338.552 289.8 338.461 289.496 338.28 289.24C338.109 288.973 337.805 288.771 337.368 288.632C336.941 288.493 336.339 288.424 335.56 288.424V287.08C336.563 287.08 337.256 286.925 337.64 286.616C338.024 286.307 338.216 285.917 338.216 285.448C338.216 285.021 338.083 284.691 337.816 284.456C337.549 284.211 337.181 284.088 336.712 284.088C336.317 284.088 335.955 284.179 335.624 284.36C335.293 284.531 334.973 284.76 334.664 285.048L333.72 283.912C334.157 283.528 334.621 283.219 335.112 282.984C335.613 282.749 336.168 282.632 336.776 282.632C337.757 282.632 338.552 282.867 339.16 283.336C339.768 283.795 340.072 284.456 340.072 285.32C340.072 285.885 339.912 286.365 339.592 286.76C339.283 287.144 338.851 287.443 338.296 287.656V287.72C338.893 287.88 339.395 288.173 339.8 288.6C340.205 289.027 340.408 289.576 340.408 290.248C340.408 290.867 340.243 291.395 339.912 291.832C339.592 292.269 339.16 292.605 338.616 292.84C338.083 293.075 337.491 293.192 336.84 293.192ZM344.179 288.968C343.443 288.968 342.84 288.68 342.371 288.104C341.912 287.517 341.683 286.696 341.683 285.64C341.683 284.595 341.912 283.784 342.371 283.208C342.84 282.632 343.443 282.344 344.179 282.344C344.915 282.344 345.512 282.632 345.971 283.208C346.44 283.784 346.675 284.595 346.675 285.64C346.675 286.696 346.44 287.517 345.971 288.104C345.512 288.68 344.915 288.968 344.179 288.968ZM344.179 287.896C344.52 287.896 344.798 287.715 345.011 287.352C345.235 286.989 345.347 286.419 345.347 285.64C345.347 284.851 345.235 284.285 345.011 283.944C344.798 283.592 344.52 283.416 344.179 283.416C343.848 283.416 343.571 283.592 343.347 283.944C343.123 284.285 343.011 284.851 343.011 285.64C343.011 286.419 343.123 286.989 343.347 287.352C343.571 287.715 343.848 287.896 344.179 287.896ZM344.515 293.192L350.227 282.344H351.347L345.651 293.192H344.515ZM351.683 293.192C350.947 293.192 350.344 292.904 349.875 292.328C349.416 291.741 349.187 290.92 349.187 289.864C349.187 288.819 349.416 288.008 349.875 287.432C350.344 286.856 350.947 286.568 351.683 286.568C352.419 286.568 353.016 286.856 353.475 287.432C353.944 288.008 354.179 288.819 354.179 289.864C354.179 290.92 353.944 291.741 353.475 292.328C353.016 292.904 352.419 293.192 351.683 293.192ZM351.683 292.12C352.024 292.12 352.302 291.939 352.515 291.576C352.739 291.213 352.851 290.643 352.851 289.864C352.851 289.075 352.739 288.509 352.515 288.168C352.302 287.816 352.024 287.64 351.683 287.64C351.352 287.64 351.075 287.816 350.851 288.168C350.627 288.509 350.515 289.075 350.515 289.864C350.515 290.643 350.627 291.213 350.851 291.576C351.075 291.939 351.352 292.12 351.683 292.12ZM333.608 356V354.928C334.557 354.011 335.373 353.195 336.056 352.48C336.749 351.755 337.283 351.099 337.656 350.512C338.029 349.915 338.216 349.36 338.216 348.848C338.216 348.315 338.072 347.888 337.784 347.568C337.496 347.248 337.08 347.088 336.536 347.088C336.141 347.088 335.779 347.2 335.448 347.424C335.128 347.648 334.829 347.915 334.552 348.224L333.528 347.2C333.997 346.699 334.483 346.315 334.984 346.048C335.485 345.771 336.083 345.632 336.776 345.632C337.757 345.632 338.536 345.915 339.112 346.48C339.699 347.045 339.992 347.803 339.992 348.752C339.992 349.349 339.821 349.963 339.48 350.592C339.149 351.211 338.701 351.845 338.136 352.496C337.581 353.147 336.968 353.829 336.296 354.544C336.563 354.523 336.851 354.501 337.16 354.48C337.469 354.448 337.747 354.432 337.992 354.432H340.488V356H333.608ZM344.179 351.968C343.443 351.968 342.84 351.68 342.371 351.104C341.912 350.517 341.683 349.696 341.683 348.64C341.683 347.595 341.912 346.784 342.371 346.208C342.84 345.632 343.443 345.344 344.179 345.344C344.915 345.344 345.512 345.632 345.971 346.208C346.44 346.784 346.675 347.595 346.675 348.64C346.675 349.696 346.44 350.517 345.971 351.104C345.512 351.68 344.915 351.968 344.179 351.968ZM344.179 350.896C344.52 350.896 344.798 350.715 345.011 350.352C345.235 349.989 345.347 349.419 345.347 348.64C345.347 347.851 345.235 347.285 345.011 346.944C344.798 346.592 344.52 346.416 344.179 346.416C343.848 346.416 343.571 346.592 343.347 346.944C343.123 347.285 343.011 347.851 343.011 348.64C343.011 349.419 343.123 349.989 343.347 350.352C343.571 350.715 343.848 350.896 344.179 350.896ZM344.515 356.192L350.227 345.344H351.347L345.651 356.192H344.515ZM351.683 356.192C350.947 356.192 350.344 355.904 349.875 355.328C349.416 354.741 349.187 353.92 349.187 352.864C349.187 351.819 349.416 351.008 349.875 350.432C350.344 349.856 350.947 349.568 351.683 349.568C352.419 349.568 353.016 349.856 353.475 350.432C353.944 351.008 354.179 351.819 354.179 352.864C354.179 353.92 353.944 354.741 353.475 355.328C353.016 355.904 352.419 356.192 351.683 356.192ZM351.683 355.12C352.024 355.12 352.302 354.939 352.515 354.576C352.739 354.213 352.851 353.643 352.851 352.864C352.851 352.075 352.739 351.509 352.515 351.168C352.302 350.816 352.024 350.64 351.683 350.64C351.352 350.64 351.075 350.816 350.851 351.168C350.627 351.509 350.515 352.075 350.515 352.864C350.515 353.643 350.627 354.213 350.851 354.576C351.075 354.939 351.352 355.12 351.683 355.12Z" fill="#0D0E25"/>
<path d="M475.288 162.04C475 162.04 474.696 162.131 474.376 162.312C474.056 162.483 473.752 162.781 473.464 163.208C473.56 164.115 473.779 164.771 474.12 165.176C474.461 165.581 474.877 165.784 475.368 165.784C475.795 165.784 476.152 165.619 476.44 165.288C476.739 164.947 476.888 164.467 476.888 163.848C476.888 163.251 476.744 162.803 476.456 162.504C476.179 162.195 475.789 162.04 475.288 162.04ZM475.4 167.192C474.739 167.192 474.125 167.016 473.56 166.664C472.995 166.312 472.541 165.768 472.2 165.032C471.869 164.296 471.704 163.357 471.704 162.216C471.704 160.893 471.891 159.827 472.264 159.016C472.648 158.195 473.144 157.592 473.752 157.208C474.36 156.824 475.011 156.632 475.704 156.632C476.323 156.632 476.856 156.744 477.304 156.968C477.752 157.192 478.125 157.464 478.424 157.784L477.432 158.904C477.251 158.68 477.011 158.499 476.712 158.36C476.424 158.211 476.125 158.136 475.816 158.136C475.389 158.136 475 158.253 474.648 158.488C474.296 158.723 474.008 159.117 473.784 159.672C473.571 160.216 473.448 160.957 473.416 161.896C473.715 161.523 474.067 161.229 474.472 161.016C474.877 160.803 475.261 160.696 475.624 160.696C476.509 160.696 477.224 160.957 477.768 161.48C478.323 161.992 478.6 162.781 478.6 163.848C478.6 164.52 478.451 165.107 478.152 165.608C477.864 166.109 477.48 166.499 477 166.776C476.52 167.053 475.987 167.192 475.4 167.192ZM482.179 162.968C481.443 162.968 480.84 162.68 480.371 162.104C479.912 161.517 479.683 160.696 479.683 159.64C479.683 158.595 479.912 157.784 480.371 157.208C480.84 156.632 481.443 156.344 482.179 156.344C482.915 156.344 483.512 156.632 483.971 157.208C484.44 157.784 484.675 158.595 484.675 159.64C484.675 160.696 484.44 161.517 483.971 162.104C483.512 162.68 482.915 162.968 482.179 162.968ZM482.179 161.896C482.52 161.896 482.798 161.715 483.011 161.352C483.235 160.989 483.347 160.419 483.347 159.64C483.347 158.851 483.235 158.285 483.011 157.944C482.798 157.592 482.52 157.416 482.179 157.416C481.848 157.416 481.571 157.592 481.347 157.944C481.123 158.285 481.011 158.851 481.011 159.64C481.011 160.419 481.123 160.989 481.347 161.352C481.571 161.715 481.848 161.896 482.179 161.896ZM482.515 167.192L488.227 156.344H489.347L483.651 167.192H482.515ZM489.683 167.192C488.947 167.192 488.344 166.904 487.875 166.328C487.416 165.741 487.187 164.92 487.187 163.864C487.187 162.819 487.416 162.008 487.875 161.432C488.344 160.856 488.947 160.568 489.683 160.568C490.419 160.568 491.016 160.856 491.475 161.432C491.944 162.008 492.179 162.819 492.179 163.864C492.179 164.92 491.944 165.741 491.475 166.328C491.016 166.904 490.419 167.192 489.683 167.192ZM489.683 166.12C490.024 166.12 490.302 165.939 490.515 165.576C490.739 165.213 490.851 164.643 490.851 163.864C490.851 163.075 490.739 162.509 490.515 162.168C490.302 161.816 490.024 161.64 489.683 161.64C489.352 161.64 489.075 161.816 488.851 162.168C488.627 162.509 488.515 163.075 488.515 163.864C488.515 164.643 488.627 165.213 488.851 165.576C489.075 165.939 489.352 166.12 489.683 166.12ZM474.856 230.192C474.035 230.192 473.341 230.053 472.776 229.776C472.221 229.488 471.757 229.157 471.384 228.784L472.232 227.6C472.541 227.888 472.888 228.144 473.272 228.368C473.656 228.581 474.104 228.688 474.616 228.688C475.181 228.688 475.651 228.517 476.024 228.176C476.397 227.835 476.584 227.355 476.584 226.736C476.584 226.128 476.413 225.659 476.072 225.328C475.731 224.997 475.277 224.832 474.712 224.832C474.381 224.832 474.104 224.88 473.88 224.976C473.656 225.061 473.389 225.205 473.08 225.408L472.2 224.848L472.504 219.824H477.944V221.376H474.104L473.896 223.84C474.109 223.733 474.317 223.653 474.52 223.6C474.733 223.536 474.973 223.504 475.24 223.504C475.827 223.504 476.36 223.616 476.84 223.84C477.32 224.064 477.704 224.411 477.992 224.88C478.291 225.349 478.44 225.952 478.44 226.688C478.44 227.424 478.269 228.053 477.928 228.576C477.597 229.099 477.16 229.499 476.616 229.776C476.072 230.053 475.485 230.192 474.856 230.192ZM482.179 225.968C481.443 225.968 480.84 225.68 480.371 225.104C479.912 224.517 479.683 223.696 479.683 222.64C479.683 221.595 479.912 220.784 480.371 220.208C480.84 219.632 481.443 219.344 482.179 219.344C482.915 219.344 483.512 219.632 483.971 220.208C484.44 220.784 484.675 221.595 484.675 222.64C484.675 223.696 484.44 224.517 483.971 225.104C483.512 225.68 482.915 225.968 482.179 225.968ZM482.179 224.896C482.52 224.896 482.798 224.715 483.011 224.352C483.235 223.989 483.347 223.419 483.347 222.64C483.347 221.851 483.235 221.285 483.011 220.944C482.798 220.592 482.52 220.416 482.179 220.416C481.848 220.416 481.571 220.592 481.347 220.944C481.123 221.285 481.011 221.851 481.011 222.64C481.011 223.419 481.123 223.989 481.347 224.352C481.571 224.715 481.848 224.896 482.179 224.896ZM482.515 230.192L488.227 219.344H489.347L483.651 230.192H482.515ZM489.683 230.192C488.947 230.192 488.344 229.904 487.875 229.328C487.416 228.741 487.187 227.92 487.187 226.864C487.187 225.819 487.416 225.008 487.875 224.432C488.344 223.856 488.947 223.568 489.683 223.568C490.419 223.568 491.016 223.856 491.475 224.432C491.944 225.008 492.179 225.819 492.179 226.864C492.179 227.92 491.944 228.741 491.475 229.328C491.016 229.904 490.419 230.192 489.683 230.192ZM489.683 229.12C490.024 229.12 490.302 228.939 490.515 228.576C490.739 228.213 490.851 227.643 490.851 226.864C490.851 226.075 490.739 225.509 490.515 225.168C490.302 224.816 490.024 224.64 489.683 224.64C489.352 224.64 489.075 224.816 488.851 225.168C488.627 225.509 488.515 226.075 488.515 226.864C488.515 227.643 488.627 228.213 488.851 228.576C489.075 228.939 489.352 229.12 489.683 229.12ZM473.112 288.952H475.784V286.648C475.784 286.349 475.795 285.997 475.816 285.592C475.837 285.187 475.853 284.835 475.864 284.536H475.8C475.672 284.803 475.539 285.064 475.4 285.32C475.261 285.576 475.117 285.843 474.968 286.12L473.112 288.952ZM475.784 293V290.376H471.288V289.128L475.32 282.824H477.512V288.952H478.792V290.376H477.512V293H475.784ZM482.179 288.968C481.443 288.968 480.84 288.68 480.371 288.104C479.912 287.517 479.683 286.696 479.683 285.64C479.683 284.595 479.912 283.784 480.371 283.208C480.84 282.632 481.443 282.344 482.179 282.344C482.915 282.344 483.512 282.632 483.971 283.208C484.44 283.784 484.675 284.595 484.675 285.64C484.675 286.696 484.44 287.517 483.971 288.104C483.512 288.68 482.915 288.968 482.179 288.968ZM482.179 287.896C482.52 287.896 482.798 287.715 483.011 287.352C483.235 286.989 483.347 286.419 483.347 285.64C483.347 284.851 483.235 284.285 483.011 283.944C482.798 283.592 482.52 283.416 482.179 283.416C481.848 283.416 481.571 283.592 481.347 283.944C481.123 284.285 481.011 284.851 481.011 285.64C481.011 286.419 481.123 286.989 481.347 287.352C481.571 287.715 481.848 287.896 482.179 287.896ZM482.515 293.192L488.227 282.344H489.347L483.651 293.192H482.515ZM489.683 293.192C488.947 293.192 488.344 292.904 487.875 292.328C487.416 291.741 487.187 290.92 487.187 289.864C487.187 288.819 487.416 288.008 487.875 287.432C488.344 286.856 488.947 286.568 489.683 286.568C490.419 286.568 491.016 286.856 491.475 287.432C491.944 288.008 492.179 288.819 492.179 289.864C492.179 290.92 491.944 291.741 491.475 292.328C491.016 292.904 490.419 293.192 489.683 293.192ZM489.683 292.12C490.024 292.12 490.302 291.939 490.515 291.576C490.739 291.213 490.851 290.643 490.851 289.864C490.851 289.075 490.739 288.509 490.515 288.168C490.302 287.816 490.024 287.64 489.683 287.64C489.352 287.64 489.075 287.816 488.851 288.168C488.627 288.509 488.515 289.075 488.515 289.864C488.515 290.643 488.627 291.213 488.851 291.576C489.075 291.939 489.352 292.12 489.683 292.12ZM471.608 356V354.928C472.557 354.011 473.373 353.195 474.056 352.48C474.749 351.755 475.283 351.099 475.656 350.512C476.029 349.915 476.216 349.36 476.216 348.848C476.216 348.315 476.072 347.888 475.784 347.568C475.496 347.248 475.08 347.088 474.536 347.088C474.141 347.088 473.779 347.2 473.448 347.424C473.128 347.648 472.829 347.915 472.552 348.224L471.528 347.2C471.997 346.699 472.483 346.315 472.984 346.048C473.485 345.771 474.083 345.632 474.776 345.632C475.757 345.632 476.536 345.915 477.112 346.48C477.699 347.045 477.992 347.803 477.992 348.752C477.992 349.349 477.821 349.963 477.48 350.592C477.149 351.211 476.701 351.845 476.136 352.496C475.581 353.147 474.968 353.829 474.296 354.544C474.563 354.523 474.851 354.501 475.16 354.48C475.469 354.448 475.747 354.432 475.992 354.432H478.488V356H471.608ZM482.179 351.968C481.443 351.968 480.84 351.68 480.371 351.104C479.912 350.517 479.683 349.696 479.683 348.64C479.683 347.595 479.912 346.784 480.371 346.208C480.84 345.632 481.443 345.344 482.179 345.344C482.915 345.344 483.512 345.632 483.971 346.208C484.44 346.784 484.675 347.595 484.675 348.64C484.675 349.696 484.44 350.517 483.971 351.104C483.512 351.68 482.915 351.968 482.179 351.968ZM482.179 350.896C482.52 350.896 482.798 350.715 483.011 350.352C483.235 349.989 483.347 349.419 483.347 348.64C483.347 347.851 483.235 347.285 483.011 346.944C482.798 346.592 482.52 346.416 482.179 346.416C481.848 346.416 481.571 346.592 481.347 346.944C481.123 347.285 481.011 347.851 481.011 348.64C481.011 349.419 481.123 349.989 481.347 350.352C481.571 350.715 481.848 350.896 482.179 350.896ZM482.515 356.192L488.227 345.344H489.347L483.651 356.192H482.515ZM489.683 356.192C488.947 356.192 488.344 355.904 487.875 355.328C487.416 354.741 487.187 353.92 487.187 352.864C487.187 351.819 487.416 351.008 487.875 350.432C488.344 349.856 488.947 349.568 489.683 349.568C490.419 349.568 491.016 349.856 491.475 350.432C491.944 351.008 492.179 351.819 492.179 352.864C492.179 353.92 491.944 354.741 491.475 355.328C491.016 355.904 490.419 356.192 489.683 356.192ZM489.683 355.12C490.024 355.12 490.302 354.939 490.515 354.576C490.739 354.213 490.851 353.643 490.851 352.864C490.851 352.075 490.739 351.509 490.515 351.168C490.302 350.816 490.024 350.64 489.683 350.64C489.352 350.64 489.075 350.816 488.851 351.168C488.627 351.509 488.515 352.075 488.515 352.864C488.515 353.643 488.627 354.213 488.851 354.576C489.075 354.939 489.352 355.12 489.683 355.12Z" fill="#0D0E25"/>
<path d="M122.972 91V78.108H118.616V76.568H129.176V78.108H124.82V91H122.972ZM132.452 91.264C131.557 91.264 130.809 91 130.208 90.472C129.621 89.9293 129.328 89.1813 129.328 88.228C129.328 87.0547 129.848 86.16 130.89 85.544C131.946 84.9133 133.61 84.4733 135.884 84.224C135.884 83.7693 135.818 83.3367 135.686 82.926C135.568 82.5153 135.348 82.1853 135.026 81.936C134.718 81.672 134.27 81.54 133.684 81.54C133.068 81.54 132.488 81.6573 131.946 81.892C131.403 82.1267 130.919 82.3907 130.494 82.684L129.79 81.43C130.288 81.1073 130.897 80.7993 131.616 80.506C132.349 80.198 133.141 80.044 133.992 80.044C135.297 80.044 136.243 80.4473 136.83 81.254C137.416 82.046 137.71 83.1093 137.71 84.444V91H136.214L136.06 89.724H135.994C135.495 90.1347 134.945 90.494 134.344 90.802C133.757 91.11 133.126 91.264 132.452 91.264ZM132.98 89.812C133.493 89.812 133.977 89.6873 134.432 89.438C134.886 89.1887 135.37 88.8367 135.884 88.382V85.412C134.109 85.632 132.862 85.962 132.144 86.402C131.44 86.842 131.088 87.4067 131.088 88.096C131.088 88.6973 131.271 89.1373 131.638 89.416C132.004 89.68 132.452 89.812 132.98 89.812ZM139.578 91L143.076 85.412L139.842 80.308H141.8L143.23 82.662C143.391 82.9407 143.56 83.234 143.736 83.542C143.912 83.85 144.095 84.1507 144.286 84.444H144.374C144.535 84.1507 144.696 83.85 144.858 83.542C145.019 83.234 145.18 82.9407 145.342 82.662L146.64 80.308H148.532L145.298 85.61L148.774 91H146.816L145.254 88.514C145.063 88.1913 144.872 87.8687 144.682 87.546C144.491 87.2233 144.293 86.908 144.088 86.6H144C143.809 86.908 143.626 87.2233 143.45 87.546C143.274 87.854 143.098 88.1767 142.922 88.514L141.47 91H139.578Z" fill="#0D0E25"/>
<path d="M122.972 442V429.108H118.616V427.568H129.176V429.108H124.82V442H122.972ZM134.296 442.264C133.431 442.264 132.617 442.044 131.854 441.604C131.106 441.164 130.497 440.526 130.028 439.69C129.573 438.854 129.346 437.849 129.346 436.676C129.346 435.473 129.573 434.454 130.028 433.618C130.497 432.782 131.106 432.144 131.854 431.704C132.617 431.264 133.431 431.044 134.296 431.044C135.176 431.044 135.99 431.264 136.738 431.704C137.486 432.144 138.087 432.782 138.542 433.618C139.011 434.454 139.246 435.473 139.246 436.676C139.246 437.849 139.011 438.854 138.542 439.69C138.087 440.526 137.486 441.164 136.738 441.604C135.99 442.044 135.176 442.264 134.296 442.264ZM134.296 440.768C135.22 440.768 135.961 440.394 136.518 439.646C137.09 438.883 137.376 437.893 137.376 436.676C137.376 435.444 137.09 434.447 136.518 433.684C135.961 432.921 135.22 432.54 134.296 432.54C133.387 432.54 132.646 432.921 132.074 433.684C131.502 434.447 131.216 435.444 131.216 436.676C131.216 437.893 131.502 438.883 132.074 439.646C132.646 440.394 133.387 440.768 134.296 440.768ZM145.063 442.264C143.919 442.264 143.119 441.934 142.665 441.274C142.225 440.614 142.005 439.756 142.005 438.7V432.782H140.421V431.418L142.093 431.308L142.313 428.316H143.831V431.308H146.713V432.782H143.831V438.722C143.831 439.382 143.948 439.895 144.183 440.262C144.432 440.614 144.865 440.79 145.481 440.79C145.671 440.79 145.877 440.761 146.097 440.702C146.317 440.629 146.515 440.563 146.691 440.504L147.043 441.868C146.749 441.971 146.427 442.059 146.075 442.132C145.737 442.22 145.4 442.264 145.063 442.264ZM151.122 442.264C150.227 442.264 149.479 442 148.878 441.472C148.291 440.929 147.998 440.181 147.998 439.228C147.998 438.055 148.518 437.16 149.56 436.544C150.616 435.913 152.28 435.473 154.554 435.224C154.554 434.769 154.488 434.337 154.356 433.926C154.238 433.515 154.018 433.185 153.696 432.936C153.388 432.672 152.94 432.54 152.354 432.54C151.738 432.54 151.158 432.657 150.616 432.892C150.073 433.127 149.589 433.391 149.164 433.684L148.46 432.43C148.958 432.107 149.567 431.799 150.286 431.506C151.019 431.198 151.811 431.044 152.662 431.044C153.967 431.044 154.913 431.447 155.5 432.254C156.086 433.046 156.38 434.109 156.38 435.444V442H154.884L154.73 440.724H154.664C154.165 441.135 153.615 441.494 153.014 441.802C152.427 442.11 151.796 442.264 151.122 442.264ZM151.65 440.812C152.163 440.812 152.647 440.687 153.102 440.438C153.556 440.189 154.04 439.837 154.554 439.382V436.412C152.779 436.632 151.532 436.962 150.814 437.402C150.11 437.842 149.758 438.407 149.758 439.096C149.758 439.697 149.941 440.137 150.308 440.416C150.674 440.68 151.122 440.812 151.65 440.812ZM161.657 442.264C160.983 442.264 160.491 442.059 160.183 441.648C159.89 441.223 159.743 440.621 159.743 439.844V426.336H161.547V439.976C161.547 440.255 161.599 440.46 161.701 440.592C161.804 440.709 161.921 440.768 162.053 440.768C162.112 440.768 162.163 440.768 162.207 440.768C162.266 440.753 162.347 440.739 162.449 440.724L162.691 442.088C162.574 442.147 162.435 442.191 162.273 442.22C162.112 442.249 161.907 442.264 161.657 442.264Z" fill="#0D0E25"/>
<path d="M330.738 442V440.504H333.95V430.164H331.398V428.998C332.043 428.881 332.601 428.741 333.07 428.58C333.554 428.404 333.987 428.199 334.368 427.964H335.754V440.504H338.658V442H330.738ZM342.224 436.676H346.624V432.606C346.624 432.225 346.638 431.77 346.668 431.242C346.697 430.714 346.719 430.267 346.734 429.9H346.646C346.47 430.237 346.286 430.567 346.096 430.89C345.905 431.213 345.707 431.543 345.502 431.88L342.224 436.676ZM346.624 442V438.128H340.31V436.94L346.316 427.964H348.34V436.676H350.254V438.128H348.34V442H346.624ZM354.919 436.412C353.936 436.412 353.144 436.016 352.543 435.224C351.942 434.432 351.641 433.303 351.641 431.836C351.641 430.399 351.942 429.284 352.543 428.492C353.144 427.7 353.936 427.304 354.919 427.304C355.902 427.304 356.694 427.7 357.295 428.492C357.896 429.284 358.197 430.399 358.197 431.836C358.197 433.303 357.896 434.432 357.295 435.224C356.694 436.016 355.902 436.412 354.919 436.412ZM354.919 435.29C355.476 435.29 355.931 435.004 356.283 434.432C356.635 433.845 356.811 432.98 356.811 431.836C356.811 430.692 356.635 429.841 356.283 429.284C355.931 428.712 355.476 428.426 354.919 428.426C354.347 428.426 353.885 428.712 353.533 429.284C353.181 429.841 353.005 430.692 353.005 431.836C353.005 432.98 353.181 433.845 353.533 434.432C353.885 435.004 354.347 435.29 354.919 435.29ZM355.337 442.264L363.301 427.304H364.533L356.569 442.264H355.337ZM364.973 442.264C363.99 442.264 363.198 441.868 362.597 441.076C361.996 440.284 361.695 439.155 361.695 437.688C361.695 436.251 361.996 435.136 362.597 434.344C363.198 433.552 363.99 433.156 364.973 433.156C365.956 433.156 366.748 433.552 367.349 434.344C367.95 435.136 368.251 436.251 368.251 437.688C368.251 439.155 367.95 440.284 367.349 441.076C366.748 441.868 365.956 442.264 364.973 442.264ZM364.973 441.142C365.53 441.142 365.985 440.856 366.337 440.284C366.689 439.697 366.865 438.832 366.865 437.688C366.865 436.544 366.689 435.693 366.337 435.136C365.985 434.564 365.53 434.278 364.973 434.278C364.401 434.278 363.939 434.564 363.587 435.136C363.235 435.693 363.059 436.544 363.059 437.688C363.059 438.832 363.235 439.697 363.587 440.284C363.939 440.856 364.401 441.142 364.973 441.142Z" fill="#0D0E25"/>
<path d="M464.738 442V440.504H467.95V430.164H465.398V428.998C466.043 428.881 466.601 428.741 467.07 428.58C467.554 428.404 467.987 428.199 468.368 427.964H469.754V440.504H472.658V442H464.738ZM477.83 442C477.918 440.24 478.101 438.663 478.38 437.27C478.673 435.862 479.098 434.542 479.656 433.31C480.228 432.063 480.976 430.802 481.9 429.526H474.904V427.964H483.946V429.086C483.11 430.142 482.428 431.161 481.9 432.144C481.372 433.112 480.961 434.095 480.668 435.092C480.374 436.075 480.154 437.131 480.008 438.26C479.861 439.389 479.758 440.636 479.7 442H477.83ZM488.919 436.412C487.936 436.412 487.144 436.016 486.543 435.224C485.942 434.432 485.641 433.303 485.641 431.836C485.641 430.399 485.942 429.284 486.543 428.492C487.144 427.7 487.936 427.304 488.919 427.304C489.902 427.304 490.694 427.7 491.295 428.492C491.896 429.284 492.197 430.399 492.197 431.836C492.197 433.303 491.896 434.432 491.295 435.224C490.694 436.016 489.902 436.412 488.919 436.412ZM488.919 435.29C489.476 435.29 489.931 435.004 490.283 434.432C490.635 433.845 490.811 432.98 490.811 431.836C490.811 430.692 490.635 429.841 490.283 429.284C489.931 428.712 489.476 428.426 488.919 428.426C488.347 428.426 487.885 428.712 487.533 429.284C487.181 429.841 487.005 430.692 487.005 431.836C487.005 432.98 487.181 433.845 487.533 434.432C487.885 435.004 488.347 435.29 488.919 435.29ZM489.337 442.264L497.301 427.304H498.533L490.569 442.264H489.337ZM498.973 442.264C497.99 442.264 497.198 441.868 496.597 441.076C495.996 440.284 495.695 439.155 495.695 437.688C495.695 436.251 495.996 435.136 496.597 434.344C497.198 433.552 497.99 433.156 498.973 433.156C499.956 433.156 500.748 433.552 501.349 434.344C501.95 435.136 502.251 436.251 502.251 437.688C502.251 439.155 501.95 440.284 501.349 441.076C500.748 441.868 499.956 442.264 498.973 442.264ZM498.973 441.142C499.53 441.142 499.985 440.856 500.337 440.284C500.689 439.697 500.865 438.832 500.865 437.688C500.865 436.544 500.689 435.693 500.337 435.136C499.985 434.564 499.53 434.278 498.973 434.278C498.401 434.278 497.939 434.564 497.587 435.136C497.235 435.693 497.059 436.544 497.059 437.688C497.059 438.832 497.235 439.697 497.587 440.284C497.939 440.856 498.401 441.142 498.973 441.142Z" fill="#0D0E25"/>
<path d="M328.98 90V75.568H333.27C334.253 75.568 335.111 75.6853 335.844 75.92C336.592 76.1547 337.171 76.5287 337.582 77.042C338.007 77.5553 338.22 78.2373 338.22 79.088C338.22 79.8067 338.037 80.4593 337.67 81.046C337.318 81.618 336.797 82.014 336.108 82.234V82.322C336.973 82.4833 337.677 82.85 338.22 83.422C338.777 83.994 339.056 84.7787 339.056 85.776C339.056 86.7147 338.821 87.4993 338.352 88.13C337.897 88.7607 337.259 89.23 336.438 89.538C335.617 89.846 334.663 90 333.578 90H328.98ZM330.806 81.706H332.94C334.172 81.706 335.059 81.4933 335.602 81.068C336.145 80.6427 336.416 80.0633 336.416 79.33C336.416 78.494 336.13 77.9 335.558 77.548C335.001 77.196 334.157 77.02 333.028 77.02H330.806V81.706ZM330.806 88.548H333.314C334.561 88.548 335.529 88.3207 336.218 87.866C336.907 87.3967 337.252 86.678 337.252 85.71C337.252 84.8153 336.907 84.1627 336.218 83.752C335.543 83.3267 334.575 83.114 333.314 83.114H330.806V88.548ZM344.862 90.264C343.732 90.264 342.904 89.912 342.376 89.208C341.848 88.4893 341.584 87.448 341.584 86.084V79.308H343.41V85.842C343.41 86.8393 343.564 87.5653 343.872 88.02C344.194 88.4747 344.708 88.702 345.412 88.702C345.969 88.702 346.46 88.5627 346.886 88.284C347.326 87.9907 347.795 87.5287 348.294 86.898V79.308H350.098V90H348.602L348.448 88.328H348.382C347.883 88.9147 347.355 89.384 346.798 89.736C346.24 90.088 345.595 90.264 344.862 90.264ZM353.88 94.598C353.646 94.598 353.418 94.576 353.198 94.532C352.993 94.488 352.802 94.4367 352.626 94.378L352.978 92.948C353.096 92.9773 353.228 93.0067 353.374 93.036C353.521 93.08 353.66 93.102 353.792 93.102C354.394 93.102 354.892 92.882 355.288 92.442C355.684 92.0167 355.992 91.474 356.212 90.814L356.454 90.022L352.164 79.308H354.034L356.212 85.226C356.374 85.6807 356.542 86.172 356.718 86.7C356.909 87.228 357.085 87.7413 357.246 88.24H357.334C357.496 87.756 357.65 87.25 357.796 86.722C357.943 86.194 358.09 85.6953 358.236 85.226L360.15 79.308H361.91L357.884 90.88C357.635 91.584 357.334 92.2147 356.982 92.772C356.645 93.3293 356.22 93.7693 355.706 94.092C355.208 94.4293 354.599 94.598 353.88 94.598Z" fill="#0D0E25"/>
<path d="M468.984 91.264C467.972 91.264 467.033 91.0733 466.168 90.692C465.303 90.296 464.555 89.7753 463.924 89.13L465.024 87.854C465.537 88.3967 466.139 88.8367 466.828 89.174C467.532 89.4967 468.258 89.658 469.006 89.658C469.959 89.658 470.7 89.4453 471.228 89.02C471.756 88.58 472.02 88.008 472.02 87.304C472.02 86.8053 471.91 86.4093 471.69 86.116C471.485 85.8227 471.199 85.5733 470.832 85.368C470.48 85.1627 470.077 84.9573 469.622 84.752L467.554 83.85C467.099 83.6593 466.645 83.41 466.19 83.102C465.75 82.794 465.376 82.398 465.068 81.914C464.775 81.43 464.628 80.836 464.628 80.132C464.628 79.3987 464.819 78.746 465.2 78.174C465.596 77.5873 466.139 77.1327 466.828 76.81C467.517 76.4727 468.295 76.304 469.16 76.304C470.025 76.304 470.825 76.4727 471.558 76.81C472.291 77.1327 472.915 77.558 473.428 78.086L472.438 79.274C471.998 78.8487 471.507 78.5187 470.964 78.284C470.436 78.0347 469.835 77.91 469.16 77.91C468.353 77.91 467.701 78.1007 467.202 78.482C466.718 78.8633 466.476 79.3767 466.476 80.022C466.476 80.4767 466.593 80.858 466.828 81.166C467.077 81.4593 467.385 81.7013 467.752 81.892C468.119 82.0827 468.493 82.2587 468.874 82.42L470.92 83.3C471.477 83.5347 471.976 83.8207 472.416 84.158C472.871 84.4807 473.23 84.884 473.494 85.368C473.758 85.8373 473.89 86.4313 473.89 87.15C473.89 87.9127 473.692 88.6093 473.296 89.24C472.9 89.856 472.335 90.3473 471.602 90.714C470.869 91.0807 469.996 91.264 468.984 91.264ZM480.89 91.264C479.937 91.264 479.071 91.044 478.294 90.604C477.517 90.1493 476.901 89.504 476.446 88.668C475.991 87.832 475.764 86.8347 475.764 85.676C475.764 84.5027 475.991 83.498 476.446 82.662C476.915 81.826 477.517 81.1807 478.25 80.726C478.983 80.2713 479.753 80.044 480.56 80.044C481.924 80.044 482.973 80.4987 483.706 81.408C484.454 82.3173 484.828 83.5347 484.828 85.06C484.828 85.2507 484.821 85.4413 484.806 85.632C484.806 85.808 484.791 85.962 484.762 86.094H477.546C477.619 87.2233 477.971 88.1253 478.602 88.8C479.247 89.4747 480.083 89.812 481.11 89.812C481.623 89.812 482.093 89.7387 482.518 89.592C482.958 89.4307 483.376 89.2253 483.772 88.976L484.41 90.164C483.955 90.4573 483.435 90.714 482.848 90.934C482.276 91.154 481.623 91.264 480.89 91.264ZM477.524 84.796H483.244C483.244 83.7107 483.009 82.8893 482.54 82.332C482.085 81.76 481.44 81.474 480.604 81.474C479.856 81.474 479.181 81.7673 478.58 82.354C477.993 82.926 477.641 83.74 477.524 84.796ZM489.384 91.264C488.709 91.264 488.218 91.0587 487.91 90.648C487.617 90.2227 487.47 89.6213 487.47 88.844V75.336H489.274V88.976C489.274 89.2547 489.325 89.46 489.428 89.592C489.531 89.7093 489.648 89.768 489.78 89.768C489.839 89.768 489.89 89.768 489.934 89.768C489.993 89.7533 490.073 89.7387 490.176 89.724L490.418 91.088C490.301 91.1467 490.161 91.1907 490 91.22C489.839 91.2493 489.633 91.264 489.384 91.264ZM494.991 91.264C494.317 91.264 493.825 91.0587 493.517 90.648C493.224 90.2227 493.077 89.6213 493.077 88.844V75.336H494.881V88.976C494.881 89.2547 494.933 89.46 495.035 89.592C495.138 89.7093 495.255 89.768 495.387 89.768C495.446 89.768 495.497 89.768 495.541 89.768C495.6 89.7533 495.681 89.7387 495.783 89.724L496.025 91.088C495.908 91.1467 495.769 91.1907 495.607 91.22C495.446 91.2493 495.241 91.264 494.991 91.264Z" fill="#0D0E25"/>
<defs>
<filter id="filter0_d_20_28" x="0" y="0" width="648" height="605" filterUnits="userSpaceOnUse" color-interpolation-filters="sRGB">
<feFlood flood-opacity="0" result="BackgroundImageFix"/>
<feColorMatrix in="SourceAlpha" type="matrix" values="0 0 0 0 0 0 0 0 0 0 0 0 0 0 0 0 0 0 127 0" result="hardAlpha"/>
<feOffset dy="40"/>
<feGaussianBlur stdDeviation="30"/>
<feComposite in2="hardAlpha" operator="out"/>
<feColorMatrix type="matrix" values="0 0 0 0 0.0509804 0 0 0 0 0.054902 0 0 0 0 0.145098 0 0 0 0.1 0"/>
<feBlend mode="normal" in2="BackgroundImageFix" result="effect1_dropShadow_20_28"/>
<feBlend mode="normal" in="SourceGraphic" in2="effect1_dropShadow_20_28" result="shape"/>
</filter>
</defs>
</svg>
