<svg width="40" height="40" viewBox="0 0 40 40" fill="none" xmlns="http://www.w3.org/2000/svg">
<rect width="40" height="40" rx="5" fill="#F0F9BA"/>
<path d="M22.9648 10.0003C22.8059 9.99804 22.6542 10.0103 22.5039 10.0335C21.9027 10.1261 21.3993 10.3434 20.416 10.512C19.5129 10.6669 18.9001 10.4426 18.1348 10.2483C17.3695 10.054 16.4403 9.93005 15.293 10.4495C15.0125 10.5771 14.9131 10.9255 15.084 11.1819L16.8574 13.8401C16.4799 14.1994 15.3861 15.2635 14.0996 16.9788C12.5696 19.0188 11 21.7042 11 24.4046C11 27.0548 12.3088 28.5688 14.0703 29.2464C15.8318 29.9239 18 29.9046 20 29.9046C22 29.9046 24.1682 29.9239 25.9297 29.2464C27.6912 28.5688 29 27.0548 29 24.4046C29 21.7042 27.4304 19.0188 25.9004 16.9788C24.6139 15.2635 23.5201 14.1994 23.1426 13.8401L24.916 11.1819C25.0889 10.922 24.984 10.5689 24.6973 10.4456C23.9787 10.1377 23.4417 10.0069 22.9648 10.0003ZM22.6562 11.0217C22.9228 10.9807 23.331 11.1409 23.6797 11.2346L22.2324 13.4046H17.7676L16.3047 11.2092C16.8797 11.0716 17.364 11.0858 17.8887 11.219C18.5922 11.3976 19.4404 11.6944 20.584 11.4983C21.6474 11.3159 22.2275 11.0878 22.6562 11.0217ZM17.707 14.4046H22.293C22.4803 14.5794 23.7344 15.7601 25.0996 17.5803C26.5696 19.5403 28 22.1049 28 24.4046C28 26.7543 27.0588 27.7403 25.5703 28.3128C24.0818 28.8852 22 28.9046 20 28.9046C18 28.9046 15.9182 28.8852 14.4297 28.3128C12.9412 27.7403 12 26.7543 12 24.4046C12 22.1049 13.4304 19.5403 14.9004 17.5803C16.2656 15.7601 17.5197 14.5794 17.707 14.4046ZM19.5 18.9046V19.9046C18.6775 19.9046 18 20.582 18 21.4046C18 22.2271 18.6775 22.9046 19.5 22.9046H20.5C20.7821 22.9046 21 23.1225 21 23.4046C21 23.6866 20.7821 23.9046 20.5 23.9046H19.5H18V24.9046H19.5V25.9046H20.5V24.9046C21.3225 24.9046 22 24.2271 22 23.4046C22 22.582 21.3225 21.9046 20.5 21.9046H19.5C19.2179 21.9046 19 21.6866 19 21.4046C19 21.1225 19.2179 20.9046 19.5 20.9046H20.5H22V19.9046H20.5V18.9046H19.5Z" fill="#4EB954"/>
</svg>
