<svg width="40" height="40" viewBox="0 0 40 40" fill="none" xmlns="http://www.w3.org/2000/svg">
<rect width="40" height="40" rx="5" fill="#F0F9BA"/>
<path d="M20 17.875C20 18.4717 19.7629 19.044 19.341 19.466C18.919 19.8879 18.3467 20.125 17.75 20.125C17.1533 20.125 16.581 19.8879 16.159 19.466C15.7371 19.044 15.5 18.4717 15.5 17.875V14.125C15.5 13.5283 15.7371 12.956 16.159 12.534C16.581 12.1121 17.1533 11.875 17.75 11.875C18.3467 11.875 18.919 12.1121 19.341 12.534C19.7629 12.956 20 13.5283 20 14.125V17.875Z" stroke="#4EB954" stroke-linecap="round" stroke-linejoin="round"/>
<path d="M20 14.125C20 13.5283 20.2371 12.956 20.659 12.534C21.081 12.1121 21.6533 11.875 22.25 11.875C22.8467 11.875 23.419 12.1121 23.841 12.534C24.2629 12.956 24.5 13.5283 24.5 14.125V16.375" stroke="#4EB954" stroke-linecap="round" stroke-linejoin="round"/>
<path d="M20 24.625C20 23.6304 20.3951 22.6766 21.0983 21.9733C21.8016 21.2701 22.7554 20.875 23.75 20.875H22.25C21.9542 20.8762 21.661 20.8189 21.3875 20.7062C21.1139 20.5936 20.8654 20.4279 20.6562 20.2187C20.4471 20.0096 20.2814 19.761 20.1687 19.4875C20.0561 19.214 19.9987 18.9208 20 18.625V17.125C20 16.9261 20.079 16.7353 20.2197 16.5947C20.3603 16.454 20.5511 16.375 20.75 16.375H26.75C27.0458 16.3738 27.3389 16.4311 27.6125 16.5437C27.886 16.6564 28.1346 16.8221 28.3437 17.0312C28.5529 17.2404 28.7186 17.489 28.8312 17.7625C28.9439 18.036 29.0012 18.3292 29 18.625V20.125C29 22.5119 28.0518 24.8011 26.3639 26.4889C24.6761 28.1768 22.3869 29.125 20 29.125C17.613 29.125 15.3239 28.1768 13.636 26.4889C11.9482 24.8011 11 22.5119 11 20.125V16.375C11 15.7783 11.2371 15.206 11.659 14.784C12.081 14.3621 12.6533 14.125 13.25 14.125C13.8467 14.125 14.419 14.3621 14.841 14.784C15.2629 15.206 15.5 15.7783 15.5 16.375V17.875C15.5 18.4717 15.2629 19.044 14.841 19.466C14.419 19.8879 13.8467 20.125 13.25 20.125C12.6533 20.125 12.081 19.8879 11.659 19.466C11.2371 19.044 11 18.4717 11 17.875" stroke="#4EB954" stroke-linecap="round" stroke-linejoin="round"/>
</svg>
