<svg width="40" height="40" viewBox="0 0 40 40" fill="none" xmlns="http://www.w3.org/2000/svg">
<rect width="40" height="40" rx="5" fill="#F0F9BA"/>
<g clip-path="url(#clip0_1_207)">
<path d="M21.6189 16.9913C21.6189 17.885 20.8944 18.6096 20.0006 18.6096C19.1068 18.6096 18.3823 17.885 18.3823 16.9913C18.3823 16.0975 19.1068 15.373 20.0006 15.373C20.8944 15.373 21.6189 16.0975 21.6189 16.9913Z" fill="#4EB954" stroke="#F0F9BA" stroke-width="0.4"/>
<path d="M26.0638 19.9846L26.1196 19.8668C26.608 18.8349 26.8275 17.6962 26.7578 16.5566C26.688 15.4171 26.3312 14.3137 25.7205 13.349C25.1098 12.3844 24.2651 11.5898 23.265 11.0393C22.2648 10.4887 21.1417 10.2 20 10.2C18.8583 10.2 17.7352 10.4887 16.735 11.0393C15.7349 11.5898 14.8902 12.3844 14.2795 13.349C13.6688 14.3137 13.312 15.4171 13.2422 16.5566C13.1725 17.6962 13.392 18.8349 13.8804 19.8668L13.9362 19.9846L13.8509 20.0832L10.3726 24.1034L26.0638 19.9846ZM26.0638 19.9846L26.1491 20.0832M26.0638 19.9846L26.1491 20.0832M26.1491 20.0832L29.6274 24.1034L26.1491 20.0832ZM14.3133 25.7081L14.3326 25.8624L14.7508 29.2008C14.7684 29.341 14.8274 29.4727 14.9204 29.5791C15.0133 29.6855 15.1359 29.7617 15.2724 29.798L15.2211 29.9913L15.2724 29.798C15.409 29.8343 15.5532 29.8289 15.6867 29.7827C15.8202 29.7364 15.9368 29.6514 16.0216 29.5384C16.0216 29.5384 16.0216 29.5384 16.0216 29.5383L19.84 24.4472L20 24.2339L20.16 24.4472L23.9784 29.5383C23.9784 29.5384 23.9784 29.5384 23.9784 29.5384C24.0632 29.6514 24.1798 29.7364 24.3133 29.7827C24.4468 29.8289 24.591 29.8343 24.7276 29.798L24.7789 29.9913L24.7276 29.798C24.8641 29.7617 24.9867 29.6855 25.0796 29.5791C25.1726 29.4727 25.2316 29.341 25.2492 29.2008L25.6674 25.8624L25.6867 25.7081L25.8409 25.6888L29.1793 25.2706C29.1793 25.2706 29.1793 25.2706 29.1793 25.2706C29.3066 25.2546 29.4272 25.2044 29.5282 25.1252C29.6292 25.0461 29.7069 24.941 29.7529 24.8212C29.7989 24.7014 29.8115 24.5714 29.7894 24.4449C29.7673 24.3186 29.7114 24.2006 29.6275 24.1035L14.3133 25.7081ZM14.3133 25.7081L14.159 25.6888M14.3133 25.7081L14.159 25.6888M14.159 25.6888L10.8207 25.2706C10.8207 25.2706 10.8207 25.2706 10.8207 25.2706C10.6934 25.2546 10.5728 25.2044 10.4718 25.1252C10.3708 25.0461 10.2931 24.941 10.2471 24.8212C10.2011 24.7014 10.1885 24.5714 10.2106 24.4449C10.2327 24.3186 10.2886 24.2006 10.3725 24.1035L14.159 25.6888ZM14.8965 21.4281C14.8894 21.4198 14.8828 21.4134 14.8783 21.4092L14.738 21.222L14.5756 21.4099L12.5573 23.7455L12.3128 24.0284L12.6839 24.0747L15.0367 24.3684L15.0368 24.3684C15.1935 24.3878 15.3392 24.459 15.4508 24.5707C15.5624 24.6823 15.6336 24.828 15.6531 24.9846L15.6531 24.9847L15.8786 26.7921L15.9399 27.2838L16.2371 26.8873L18.4927 23.8771L18.6754 23.6332L18.3815 23.5632M14.8965 21.4281C14.8966 21.4283 14.8968 21.4285 14.897 21.4287L14.7466 21.5576L14.8783 21.6714L14.8623 21.6899C15.2996 22.1673 15.8011 22.5822 16.3525 22.9225M14.8965 21.4281C14.8963 21.4279 14.8961 21.4277 14.8959 21.4275L14.7466 21.5576L14.727 21.5406L14.567 21.6606C14.5775 21.6748 14.5884 21.6859 14.5956 21.6926L12.8659 23.6943L12.7334 23.6778L12.7086 23.8762L12.86 24.007L12.9472 23.906L15.0615 24.1699C15.2624 24.1949 15.4491 24.2861 15.5922 24.4292C15.7353 24.5723 15.8266 24.7591 15.8516 24.9599L16.0414 26.4814L15.917 26.6474L16.077 26.7673L16.2755 26.7426L16.2498 26.5367L18.2058 23.9264C18.2112 23.9278 18.2166 23.9292 18.222 23.9306C18.2232 23.9311 18.2263 23.9322 18.2337 23.935L18.2343 23.9352C18.2438 23.9388 18.2635 23.9463 18.2863 23.9517L18.3326 23.7571L18.2817 23.719L18.2812 23.7186L18.1726 23.6372L18.1269 23.6982C17.5101 23.526 16.92 23.269 16.3734 22.9344L16.3525 22.9225M14.8965 21.4281C15.3465 21.9445 15.8716 22.3902 16.4543 22.7503M16.3525 22.9225L16.4509 22.7484L16.4543 22.7503M16.3525 22.9225L16.4576 22.7524C16.4565 22.7517 16.4554 22.751 16.4543 22.7503M16.4543 22.7503L16.4718 22.7603L16.4779 22.7637L16.4779 22.7638C17.0513 23.1149 17.6742 23.378 18.3257 23.5443L18.3312 23.5457L18.3312 23.5457C18.3419 23.5488 18.3512 23.552 18.3583 23.5546L18.3752 23.5609C18.3785 23.5621 18.3805 23.5628 18.3815 23.5632M18.3815 23.5632L18.3789 23.5626C18.3809 23.563 18.3823 23.5635 18.3822 23.5635C18.3822 23.5634 18.382 23.5634 18.3815 23.5632ZM14.8693 21.4009C14.8696 21.4012 14.8701 21.4017 14.8708 21.4023L14.8701 21.4016L14.8693 21.4009ZM14.8693 21.4009C14.869 21.4006 14.8689 21.4006 14.8693 21.4009L14.8693 21.4009ZM21.2392 22.1927L21.2392 22.1927C21.11 22.2229 20.9797 22.2484 20.8476 22.2691C20.8313 22.2717 20.8138 22.2746 20.7955 22.2777C20.745 22.286 20.6883 22.2954 20.6325 22.3019C20.2126 22.356 19.7874 22.356 19.3675 22.3019C19.3117 22.2954 19.255 22.286 19.2045 22.2777C19.1863 22.2746 19.1688 22.2717 19.1525 22.2692C19.0204 22.2484 18.8901 22.2229 18.7608 22.1927L18.7593 22.1923C18.6769 22.1724 18.5908 22.1514 18.5047 22.1263M21.2392 22.1927L18.5608 21.9343M21.2392 22.1927L21.2427 22.1918M21.2392 22.1927L21.2427 22.1918M18.5047 22.1263L18.5608 21.9343M18.5047 22.1263C18.5048 22.1263 18.5048 22.1263 18.5048 22.1263L18.5608 21.9343M18.5047 22.1263C18.3892 22.0926 18.2779 22.0535 18.17 22.0138C18.0637 21.9748 17.9512 21.9329 17.8414 21.8847L17.8408 21.8845C17.7046 21.8243 17.5679 21.7593 17.4345 21.6861M18.5608 21.9343C18.4517 21.9025 18.3454 21.8652 18.239 21.8261C18.1326 21.787 18.0253 21.747 17.9217 21.7016C17.788 21.6425 17.6562 21.5797 17.5289 21.5097M17.4345 21.6861C17.4353 21.6864 17.436 21.6868 17.4367 21.6872L17.5289 21.5097M17.4345 21.6861C17.4339 21.6857 17.4332 21.6853 17.4326 21.685L17.5289 21.5097M17.4345 21.6861L17.5289 21.5097M21.2427 22.1918C21.2635 22.1866 21.2856 22.1811 21.3085 22.1755C21.3678 22.1608 21.4326 22.1448 21.4933 22.1278L21.4933 22.1278L21.4952 22.1272C21.6109 22.0935 21.7215 22.0543 21.8295 22.0149C21.9376 21.9756 22.0489 21.9338 22.1586 21.8856L22.1592 21.8854M21.2427 22.1918L22.1592 21.8854M24.2174 20.2737L24.2173 20.2737C24.2166 20.2745 24.216 20.2754 24.2149 20.2769C24.2135 20.2788 24.2115 20.2816 24.2079 20.2865C24.2033 20.2929 24.1952 20.3041 24.1852 20.3162C24.0517 20.4848 23.9083 20.6454 23.7557 20.797C23.7307 20.822 23.6955 20.8532 23.6685 20.8772C23.6559 20.8884 23.6451 20.8979 23.638 20.9046L23.6359 20.9065L23.6359 20.9065C23.5332 20.999 23.4269 21.0914 23.317 21.1837L23.3129 21.1872L23.3128 21.1872C23.2383 21.2464 23.1626 21.3022 23.0875 21.356C23.009 21.4122 22.914 21.4738 22.8278 21.5276C22.8103 21.5386 22.7922 21.5499 22.7738 21.5616C22.7092 21.6024 22.6394 21.6465 22.5671 21.6861L24.2174 20.2737ZM24.2174 20.2737L24.2195 20.271M24.2174 20.2737L24.2195 20.271M24.2195 20.271C24.3512 20.1003 24.4731 19.9221 24.5843 19.7374M24.2195 20.271L15.4157 19.7373C14.9265 18.9254 14.6617 17.998 14.6484 17.0502C14.6351 16.1023 14.8738 15.1679 15.3401 14.3426C15.8064 13.5172 16.4836 12.8305 17.3023 12.3527C18.1211 11.8749 19.052 11.6231 20 11.6231C20.948 11.6231 21.8789 11.8749 22.6977 12.3527C23.5164 12.8305 24.1936 13.5172 24.6599 14.3426C25.1262 15.1679 25.3649 16.1023 25.3516 17.0502C25.3383 17.9981 25.0735 18.9254 24.5843 19.7374M22.1592 21.8854C22.2959 21.8249 22.4332 21.7597 22.5671 21.6861L22.1592 21.8854ZM24.5843 19.7374L24.413 19.6342L24.5843 19.7373C24.5843 19.7373 24.5843 19.7374 24.5843 19.7374ZM14.5933 21.689L14.5943 21.6902L14.5933 21.689ZM16.3602 20.9028C16.3605 20.9031 16.3608 20.9034 16.3611 20.9036L16.4971 20.757L16.3589 20.9016C16.3593 20.902 16.3597 20.9024 16.3602 20.9028ZM16.244 20.7968C16.2441 20.7969 16.2442 20.7969 16.2443 20.797L16.3852 20.6551L16.2438 20.7966C16.2439 20.7966 16.244 20.7967 16.244 20.7968ZM15.8148 20.3162C15.8158 20.3174 15.8169 20.3186 15.8179 20.3198L15.9698 20.1897L15.8128 20.3137C15.8135 20.3145 15.8142 20.3153 15.8148 20.3162ZM24.9632 24.3684L24.9632 24.3684L27.3161 24.0747L27.6874 24.0284L27.4426 23.7454L25.4216 21.4089L25.2592 21.2212L25.1189 21.4082C25.1146 21.4124 25.1082 21.4186 25.1013 21.4265C24.6512 21.9432 24.1259 22.3892 23.543 22.7494L23.5254 22.7593L23.5254 22.7592L23.5194 22.7629C22.946 23.114 22.3231 23.3771 21.6716 23.5433L21.6715 23.5433L21.6661 23.5448C21.653 23.5486 21.6418 23.5529 21.6336 23.5562H21.2646L21.5046 23.8762L23.763 26.8873L24.0601 27.2835L24.1214 26.7921L24.3469 24.9847L24.3469 24.9846C24.3664 24.828 24.4376 24.6823 24.5492 24.5707C24.6608 24.459 24.8065 24.3878 24.9632 24.3684Z" fill="#4EB954" stroke="#F0F9BA" stroke-width="0.4"/>
</g>
<defs>
<clipPath id="clip0_1_207">
<rect width="20" height="20" fill="white" transform="translate(10 10)"/>
</clipPath>
</defs>
</svg>
