<svg width="20" height="20" viewBox="0 0 20 20" fill="none" xmlns="http://www.w3.org/2000/svg">
<path d="M20 9H17.93C17.477 5.389 14.611 2.523 11 2.069V0H9V2.069C5.388 2.522 2.522 5.389 2.069 9H0V11H2.069C2.523 14.611 5.388 17.478 9 17.931V20H11V17.931C14.611 17.477 17.477 14.612 17.93 11H20V9ZM10 16C6.691 16 4 13.309 4 10C4 6.691 6.691 4 10 4C13.309 4 16 6.691 16 10C16 13.309 13.308 16 10 16ZM10 6C7.794 6 6 7.794 6 10C6 12.206 7.794 14 10 14C12.206 14 14 12.206 14 10C14 7.794 12.205 6 10 6ZM10 12C8.897 12 8 11.103 8 10C8 8.897 8.897 8 10 8C11.103 8 12 8.897 12 10C12 11.103 11.103 12 10 12Z" fill="white"/>
</svg>
