<svg width="20" height="20" viewBox="0 0 20 20" fill="none" xmlns="http://www.w3.org/2000/svg">
<path d="M13.1208 10L19.4135 3.70732C20.0274 3.0934 20.1809 2.22367 19.7716 1.81439L18.2368 0.279587C17.8275 -0.129694 16.9578 0.0237925 16.3438 0.637713L10 6.87923L3.70731 0.58655C3.09339 -0.0273707 2.22367 -0.180857 1.81439 0.228423L0.279587 1.76323C-0.129694 2.17251 0.0237847 3.04223 0.637706 3.65615L6.87923 10L0.58655 16.2927C-0.0273707 16.9066 -0.180857 17.7763 0.228423 18.1856L1.76323 19.7204C2.17251 20.1297 3.04223 19.9762 3.65615 19.3623L10 13.1208L16.2927 19.4135C16.9066 20.0274 17.7763 20.1809 18.1856 19.7716L19.7204 18.2368C20.1297 17.8275 19.9762 16.9578 19.3623 16.3438L13.1208 10Z" fill="white"/>
</svg>
